<svg xmlns="http://www.w3.org/2000/svg" viewBox="0 0 225 88">
    <style>
        .st0{fill:#f2f2f2}.st1{fill:#02a569}.st2{fill:#274C77}.st3{fill:#e5e5e5}.st4,.st5{fill-rule:evenodd;clip-rule:evenodd;fill:#ec1c24}.st5{fill:#02a569}
    </style>
    <g id="Layer_1">
        <path d="M170.9 29.4c3.3 0 5.9 2.6 5.9 5.9 0 1.2 0 1.6.5 2.8.5.9 1.4 2.6 4.7 2.8h26.1c3.3 0 5.9 2.6 5.9 5.9v.2c0 .9 0 1.6.5 2.8.2.9 1.4 2.4 3.8 2.8h.9c3.3 0 5.9 2.6 5.9 5.9 0 3.3-2.6 5.9-5.9 5.9h-19.1c-3.3 0-5.9 2.6-5.9 5.9 0 3.3 2.6 5.9 5.9 5.9h2.8c3.3 0 5.9 2.6 5.9 5.9 0 3.3-2.6 5.9-5.9 5.9H44.2c-3.3 0-5.9-2.6-5.9-5.9 0-3.3 2.6-5.9 5.9-5.9h-.7c3.3 0 5.9-2.6 5.9-5.9 0-3.3-2.6-5.9-5.9-5.9h-2.4c-3.3 0-5.9-2.6-5.9-5.9 0-3.3 2.6-5.9 5.9-5.9H40c3.3 0 5.9-2.6 5.9-5.9 0-3.3-2.6-5.9-5.9-5.9H6.6c-3.3 0-5.9-2.6-5.9-5.9 0-3.3 2.6-5.9 5.9-5.9l164.3.4z" class="st0"/>
        <path d="M22.8 75.5c-1.9 0-3.5-1.6-3.5-3.5s1.6-3.5 3.5-3.5 3.5 1.6 3.5 3.5-1.6 3.5-3.5 3.5zm0-1.9c.9 0 1.6-.7 1.6-1.6s-.7-1.6-1.6-1.6c-.9 0-1.6.7-1.6 1.6 0 .9.7 1.6 1.6 1.6" class="st1"/>
        <path d="M191.3 33.4h-1.4V32c0-.5-.5-.9-.9-.9h-.5c-.5 0-.9.5-.9.9v1.4h-1.4c-.5 0-.9.5-.9.9v.5c0 .5.5.9.9.9h1.4v1.4c0 .5.5.9.9.9h.5c.5 0 .9-.5.9-.9v-1.4h1.4c.5 0 .9-.5.9-.9v-.5c-.2-.4-.4-.9-.9-.9zM15.1 52.2h-1.4v-1.4c0-.5-.5-.9-.9-.9h-.5c-.5 0-.9.5-.9.9v1.4H9.9c-.5 0-.9.5-.9.9v.5c0 .5.5.9.9.9h1.4V56c0 .5.5.9.9.9h.5c.5 0 .9-.5.9-.9v-1.4H15c.5 0 .9-.5.9-.9v-.5c.1-.5-.4-1-.8-1z" class="st2"/>
        <circle cx="200.5" cy="70.3" r="2.6" class="st3"/>
        <path d="M39.5 44.5c1.4 0 2.6 1.2 2.6 2.6 0 1.4-1.2 2.6-2.6 2.6-1.4 0-2.6-1.2-2.6-2.6 0-1.5 1.2-2.6 2.6-2.6z" class="st3"/>
    </g>
    <g id="Layer_2">
        <path d="M156.9 26v-7c0-1.9-.7-3.6-2-4.9-1.3-1.3-3-2-4.8-2h-1.5V9.2c0-2.3-1.8-4.1-4.1-4.1s-4.1 1.9-4.1 4.1v2.9l-55.8.1V9.3c0-2.3-1.8-4.1-4.1-4.1s-4.1 1.9-4.1 4.1v2.9h-1.5c-3.8 0-6.9 3.1-6.9 7l.1 61.9c0 3.8 3.1 6.9 6.9 6.9l75.1-.1c3.8 0 6.9-3.1 6.9-7l-.1-54.9zM144.4 7.6c.8 0 1.5.7 1.5 1.5v8.4c0 .4-.2.8-.4 1.1-.3.3-.6.4-1 .4v1.3V19c-.8 0-1.5-.7-1.5-1.5V9.1c-.1-.8.6-1.5 1.4-1.5zm-65 .6c.3-.3.6-.4 1-.4.8 0 1.5.7 1.5 1.5v8.4c0 .8-.7 1.5-1.5 1.5v1.3-1.3c-.8 0-1.5-.7-1.5-1.5V9.3c0-.4.2-.8.5-1.1zm70.7 77l-75.1.2c-2.3 0-4.3-1.9-4.3-4.3l-.1-53.6 66.9-.1c1.5 0 1.5-2.6 0-2.6l-66.9.1v-5.7c0-1.1.4-2.2 1.2-3 .8-.8 1.9-1.3 3-1.3h1.5v2.9c0 2.3 1.8 4.1 4.1 4.1s4.1-1.9 4.1-4.1v-2.9l55.8-.1v2.9c0 2.3 1.8 4.1 4.1 4.1 1.1 0 2.1-.4 2.9-1.2.8-.8 1.2-1.8 1.2-2.9v-2.9h1.5c1.1 0 2.2.4 3 1.3.8.8 1.3 1.9 1.3 3v5.7h-36.9c-1.5 0-1.5 2.6 0 2.6h36.9l.1 53.6c0 2.3-1.9 4.2-4.3 4.2z" class="st2"/>
        <path d="M101.1 73h20c1.4 0 2.5.7 2.5 1.5s-1.1 1.5-2.5 1.5h-20c-1.4 0-2.5-.7-2.5-1.5s1.1-1.5 2.5-1.5zM141.7 57c1.4 0 2.5 1.1 2.5 2.5s-1.1 2.5-2.5 2.5-2.5-1.1-2.5-2.5 1.1-2.5 2.5-2.5zM83.3 57c1.4 0 2.5 1.1 2.5 2.5S84.7 62 83.3 62s-2.5-1.1-2.5-2.5 1.1-2.5 2.5-2.5z" class="st4"/>
        <g>
            <path d="M55.7 18.2c-.1-.6.2-1.2.8-1.3l2.9-.7c.6-.1 1.2.2 1.3.8.1.6-.2 1.2-.8 1.3L57 19c-.6.1-1.2-.2-1.3-.8zM60.7 5.7c.5-.4 1.1-.3 1.5.1l1.9 2.3c.4.5.3 1.1-.1 1.5-.5.4-1.1.3-1.5-.1l-1.9-2.3c-.4-.4-.4-1.1.1-1.5zM72.3 0c.6 0 1.1.5 1.1 1.1v3c0 .6-.5 1.1-1.1 1.1-.6 0-1.1-.5-1.1-1.1v-3c0-.6.5-1.1 1.1-1.1z" class="st5"/>
        </g>
    </g>
</svg>
