<?xml version="1.0" encoding="UTF-8"?>
<svg width="111px" height="40px" viewBox="0 0 111 40" version="1.1" xmlns="http://www.w3.org/2000/svg" xmlns:xlink="http://www.w3.org/1999/xlink">
    <!-- Generator: Sketch 55.1 (78136) - https://sketchapp.com -->
    <title>Fill 1</title>
    <desc>Created with Sketch.</desc>
    <g id="Symbols" stroke="none" stroke-width="1" fill="none" fill-rule="evenodd">
        <g id="module/navigation" transform="translate(-50.000000, -30.000000)" fill="#459299" fill-rule="nonzero">
            <g id="Group-5">
                <g id="Group-4" transform="translate(50.000000, 26.000000)">
                    <path d="M98.8021222,43.681281 L107.554636,43.681281 L107.554636,34.9287671 L98.8021222,34.9287671 L98.8021222,43.681281 Z M86.7674156,43.681281 L95.5206957,43.681281 L95.5206957,34.9287671 L86.7674156,34.9287671 L86.7674156,43.681281 Z M74.7342412,43.681281 L83.485989,43.681281 L83.485989,34.9287671 L74.7342412,34.9287671 L74.7342412,43.681281 Z M62.6995346,43.681281 L71.4528146,43.681281 L71.4528146,34.9287671 L62.6995346,34.9287671 L62.6995346,43.681281 Z M50.6648279,43.681281 L59.418108,43.681281 L59.418108,34.9287671 L50.6648279,34.9287671 L50.6648279,43.681281 Z M105.251585,12.8582428 C104.553621,10.2288111 103.507058,8.1816545 102.11113,6.71753912 C100.715202,5.25572219 98.8496236,4.53707215 96.5143941,4.56388745 C94.6618399,4.56388745 93.1716754,4.92014787 92.0446666,5.62960409 C90.9168917,6.34289107 90.0511406,7.268402 89.4489456,8.40920148 C88.843686,9.55000096 88.4468195,10.8516922 88.2591124,12.3150415 C88.0714053,13.7783907 87.9779348,15.2616599 87.9779348,16.764849 L87.9779348,20.2669272 C87.9779348,22.7101841 88.1395928,24.7650022 88.4606102,26.428317 C88.78316,28.093164 89.2872876,29.4346952 89.9714609,30.4552089 C90.6556341,31.4764887 91.5413051,32.206631 92.628474,32.6502327 C93.716409,33.0923021 95.0104388,33.314486 96.5143941,33.314486 C97.748664,33.314486 98.7293379,33.0923021 99.453351,32.6502327 C100.179663,32.206631 100.735888,31.6036699 101.124327,30.8375184 C101.513532,30.0728993 101.762531,29.1673083 101.869793,28.1199793 C101.976288,27.0734165 102.030684,25.9318508 102.030684,24.6960486 L102.030684,23.1660442 L97.8835067,23.1660442 L97.8835067,22.6021567 L110.325806,22.6021567 L110.325806,23.1660442 L107.707866,23.1660442 L107.707866,32.3882089 L106.983853,32.3882089 C106.930223,32.0656592 106.77546,31.8312168 106.520332,31.6833496 C106.265203,31.5347162 105.977897,31.4619319 105.654581,31.4619319 C105.009481,31.4619319 104.398858,31.5898791 103.821946,31.8434753 C103.245801,32.100136 102.621387,32.3744182 101.950238,32.6693865 C101.278324,32.9658871 100.506809,33.2409355 99.6333965,33.4960639 C98.7622824,33.74966 97.7088241,33.8783735 96.473788,33.8783735 C94.5147388,33.8783735 92.6208125,33.4960639 90.7958398,32.7306786 C88.9708671,31.9652933 87.3673121,30.9187305 85.9836427,29.5894578 C84.6015055,28.2609512 83.4936505,26.6972361 82.6623762,24.8975464 C81.8303358,23.1009213 81.4135494,21.1533644 81.4135494,19.0587064 C81.4135494,16.7786397 81.877071,14.7100308 82.8025819,12.8582428 C83.7303913,11.0064548 84.9171599,9.42205367 86.3667184,8.10657166 C87.8162769,6.79262196 89.4328564,5.77976977 91.2187554,5.06648279 C93.0031221,4.35549426 94.7553104,4 96.473788,4 C97.278247,4 98.0581892,4.07967975 98.8090176,4.2413377 C99.5621445,4.4022295 100.259342,4.57001666 100.902909,4.74546534 C101.547243,4.92014787 102.123389,5.08793503 102.635178,5.24729453 C103.143902,5.40895248 103.574479,5.49016453 103.923078,5.49016453 C104.298493,5.49016453 104.568178,5.42963857 104.72907,5.30858664 C104.890728,5.18830087 105.036296,4.96611695 105.171139,4.6450995 L105.856845,4.6450995 L105.856845,12.8582428 L105.251585,12.8582428 Z M77.8762282,16.0393036 L77.8762282,26.3471049 L81.4602846,26.3471049 L81.4602846,26.9117585 L77.8762282,26.9117585 L77.8762282,32.7490663 L72.962133,32.7490663 L72.962133,26.9117585 L61.5671627,26.9117585 C61.8353158,26.0789519 62.2850466,24.9044418 62.9163554,23.3889942 C63.546898,21.8720144 64.2716773,20.2278534 65.0914593,18.454979 C65.9097091,16.6844031 66.7677987,14.9061656 67.6687927,13.1195005 C68.5690207,11.3351338 69.4332395,9.74536957 70.2652799,8.34944167 C70.9088471,7.27529736 71.4735007,6.44249076 71.95541,5.85102185 C72.4388515,5.26261756 72.8832194,4.83204045 73.286215,4.5631213 C73.6876784,4.29573445 74.0630926,4.13484265 74.4132238,4.07967975 C74.7618227,4.0268153 75.1372369,4 75.5394664,4 C75.7823364,4 76.0374648,4.01379073 76.3048517,4.03907372 C76.5737708,4.06742133 76.82277,4.12794729 77.0510831,4.22065161 C77.2786301,4.31488824 77.4671034,4.44283553 77.6142044,4.60449348 C77.7620717,4.76538528 77.8348561,4.9936984 77.8348561,5.28943286 C77.8348561,5.58363501 77.7551763,5.83110192 77.5942845,6.03413205 C77.4333927,6.23409757 77.2311287,6.44249076 76.9905572,6.65777931 C76.5063495,7.06000881 75.8880653,7.64305005 75.1372369,8.40843533 C74.3856423,9.17382061 73.5597311,10.0740485 72.6610355,11.1068207 C71.7615737,12.1411251 70.8291674,13.2681338 69.8630504,14.4886131 C68.8954012,15.7113908 67.9492042,16.9862667 67.0244594,18.3155395 C66.0974162,19.6432799 65.2255358,20.9932387 64.4057538,22.3623513 C63.5875041,23.7299316 62.8972016,25.0599705 62.3340803,26.3471049 L72.962133,26.3471049 L72.962133,16.0393036 L77.8762282,16.0393036 Z M54.8533778,28.2647819 C54.7813595,29.327434 54.6365569,30.2207665 54.3952192,30.9685303 C54.1776322,31.7415771 53.8397594,32.2970369 53.4053516,32.7069279 C52.9464269,33.1175851 52.3672164,33.3106553 51.5941696,33.3106553 C50.4840162,33.3106553 49.5906836,33.02105 48.9632056,32.4418395 C48.3349614,31.8618629 47.852286,31.1378498 47.5381639,30.2690341 C47.2240418,29.3994522 47.0309717,28.4578521 46.9589534,27.4434676 C46.8869352,26.4543661 46.8624184,25.5365167 46.8624184,24.6914517 C46.8624184,23.8226359 46.9106859,22.856519 46.9834703,21.8429006 C47.0800054,20.8285162 47.2730755,19.886916 47.5864315,19.0181003 C47.8760367,18.1485185 48.3104446,17.448256 48.9141719,16.8927963 C49.4941485,16.3135858 50.2901799,16.0484974 51.2808137,16.0484974 C51.9803099,16.0484974 52.5602865,16.1933 53.0192112,16.4821391 C53.4773698,16.7725105 53.8397594,17.2551859 54.1293647,17.9309314 C54.4434868,18.6074432 54.6365569,19.5007757 54.7568427,20.6109292 C54.8778946,21.7218487 54.9499129,23.0733398 54.9499129,24.6914517 C54.9499129,26.0191921 54.9024115,27.2021299 54.8533778,28.2647819 L54.8533778,28.2647819 Z M59.8755004,21.6253136 C59.5376276,20.5626616 59.0304354,19.572794 58.3064223,18.6557107 C57.6061599,17.7378613 56.6890766,16.9900975 55.6026739,16.385604 C54.4917543,15.7826428 53.1632477,15.2271831 51.5941696,15.2271831 C49.7109694,15.2271831 48.2866939,15.975713 47.3933613,17.4237392 L47.3933613,15.2271831 L41.9130801,15.2271831 L41.9130801,43.6927733 L47.3933613,43.6927733 L47.3933613,31.0413147 C47.7312341,31.5967745 48.1418912,32.4655902 48.6245666,32.8999981 C49.3730966,33.5765098 50.3629642,33.866115 51.5941696,33.866115 C52.9226762,33.866115 54.105614,33.6002605 55.1920167,33.0938344 C56.2539026,32.5866421 57.171752,31.8863797 57.9440326,31.0413147 C58.7163133,30.1962497 59.3200406,29.2301327 59.7306978,28.1199793 C60.1658718,27.0328104 60.3826926,25.8743895 60.3826926,24.667701 C60.3826926,23.7261009 60.2133732,22.7117164 59.8755004,21.6253136 L59.8755004,21.6253136 Z M1.85178801,15.9879714 C3.08529181,13.5178992 4.66892681,11.4079182 6.60039457,9.6549637 C8.53339463,7.90277538 10.6970063,6.55281656 13.0942941,5.60278879 C15.4900496,4.65659178 17.834473,4.18157789 20.1237335,4.18157789 C22.5930395,4.18157789 25.0347641,4.64739796 27.4504396,5.57750579 C29.8638166,6.50684748 32.0121052,7.829991 33.8891762,9.5477025 C35.7670134,11.2646479 37.2870578,13.3493459 38.451608,15.8002643 C39.6130935,18.2504166 40.1946025,21.014691 40.1946025,24.0900228 C40.1946025,26.7738513 39.6491026,29.3236032 38.558103,31.7385125 C37.4671034,34.1534218 35.9999234,36.2725967 34.1573292,38.0975694 C32.3139689,39.9210098 30.1863663,41.3629068 27.771457,42.4178973 C25.3573139,43.4721217 22.8075619,44 20.1237335,44 C17.4759141,44 14.9368883,43.4912755 12.5043575,42.4707617 C10.0710605,41.4517803 7.9327319,40.0566186 6.09167002,38.2852765 C4.24830968,36.5139344 2.77346818,34.4315348 1.66484706,32.0327147 C0.554693635,29.6369591 0,27.0412381 0,24.2524469 C0,21.2115919 0.618284204,18.4565113 1.85178801,15.9879714 L1.85178801,15.9879714 Z M9.39071808,33.5090885 C9.82129518,35.960773 10.4924438,37.90833 11.4033979,39.3578885 C12.3166504,40.8066808 13.4965236,41.8172346 14.9453159,42.3895497 C16.3941083,42.9633971 18.1194813,43.2491716 20.1237335,43.2491716 C22.7707866,43.2491716 24.847057,42.7573024 26.3479477,41.7727978 C27.8519029,40.7890594 28.9796778,39.4299067 29.7305062,37.6945737 C30.4805685,35.960773 30.9555824,33.9021242 31.1532494,31.5224578 C31.3486181,29.1443238 31.4474516,26.5593289 31.4474516,23.7682392 C31.4474516,21.2659886 31.3677718,18.8771285 31.2061139,16.6047233 C31.0436898,14.3330843 30.5878297,12.3303645 29.8385336,10.5942654 C29.0854067,8.85969852 27.9515026,7.4813921 26.4299259,6.4624107 C24.9091153,5.44189699 22.8075619,4.93317244 20.1237335,4.93317244 C17.6199506,4.93317244 15.6172307,5.40742018 14.1140416,6.35438334 C12.6100864,7.30364497 11.4654561,8.6359823 10.6793848,10.3521615 C9.89254726,12.0706392 9.37309659,14.1093681 9.12333123,16.4698807 C8.87203356,18.8303932 8.74715087,21.4261143 8.74715087,24.2524469 C8.74715087,27.9728782 8.96243943,31.0589362 9.39071808,33.5090885 L9.39071808,33.5090885 Z" id="Fill-1"></path>
                </g>
            </g>
        </g>
    </g>
</svg>